# xmcd
#
# Track frame offsets:
#	150
#	14960
#	26262
#	49577
#	58825
#	69287
#	88327
#	101385
#	116185
#	127052
#	137912
#	150330
#	161355
#	178122
#	192595
#	202910
#	213305
#	223862
#	236427
#
# Disc length: 3308 seconds
# Revision: 0
# Processed by: cddbd v1.5.2PL0 Copyright (c) Steve Scherf et al.
# Submitted via: dBpowerAMP V12.0
#
DISCID=160cea13
DTITLE=Various Artist - Country By The Grace Of God Disc 2
DYEAR=2007
DGENRE=Country
TTITLE0=Glen Campbell - Blessed Assurance
TTITLE1=Loretta Lynn - He's Got The Whole World In His Hands
TTITLE2=Willie Nelson - It Is No Secret (What God Can Do)
TTITLE3=Roy Clark - Bringing In The Sheaves
TTITLE4=Patsy Cline - He Will Do For You What He Has Done For You
TTITLE5=T Graham Brown - Oh Happy Day
TTITLE6=Johnny Cash - Preciouis Memories
TTITLE7=Pat Boone - Onward Christian Soldiers
TTITLE8=Patti Page - God Be With You Till We Meet Again
TTITLE9=Tex Ritter - Beyond The Sunset
TTITLE10=Glen Campbell - He Leadeth Me
TTITLE11=Tennessee Ernie Ford - He Touched Me
TTITLE12=Red Foley - Nearer My God To Me
TTITLE13=Eddy Arnold - Pass Me Not
TTITLE14=Pat Boone - Count Your Blessings
TTITLE15=Kitty Wells - Dust On The Bible
TTITLE16=Jim Reeves - In The Garden
TTITLE17=Bj Thomas - Uncloudy Day
TTITLE18=Crystal Gayle - Let There Be Peace On Earth
EXTD=
EXTT0=
EXTT1=
EXTT2=
EXTT3=
EXTT4=
EXTT5=
EXTT6=
EXTT7=
EXTT8=
EXTT9=
EXTT10=
EXTT11=
EXTT12=
EXTT13=
EXTT14=
EXTT15=
EXTT16=
EXTT17=
EXTT18=
PLAYORDER=
